<?xml version="1.0" encoding="UTF-8" standalone="no"?>
<svg
   xmlns:dc="http://purl.org/dc/elements/1.1/"
   xmlns:cc="http://creativecommons.org/ns#"
   xmlns:rdf="http://www.w3.org/1999/02/22-rdf-syntax-ns#"
   xmlns:svg="http://www.w3.org/2000/svg"
   xmlns="http://www.w3.org/2000/svg"
   xmlns:sodipodi="http://sodipodi.sourceforge.net/DTD/sodipodi-0.dtd"
   xmlns:inkscape="http://www.inkscape.org/namespaces/inkscape"
   inkscape:version="1.0 (4035a4fb49, 2020-05-01)"
   sodipodi:docname="biglogo.svg"
   id="svg39"
   version="1.1"
   fill="none"
   viewBox="0 0 213 66"
   height="66"
   width="213">
  <metadata
     id="metadata43">
    <rdf:RDF>
      <cc:Work
         rdf:about="">
        <dc:format>image/svg+xml</dc:format>
        <dc:type
           rdf:resource="http://purl.org/dc/dcmitype/StillImage" />
      </cc:Work>
    </rdf:RDF>
  </metadata>
  <sodipodi:namedview
     inkscape:current-layer="svg39"
     inkscape:window-maximized="1"
     inkscape:window-y="22"
     inkscape:window-x="-8"
     inkscape:cy="18.814279"
     inkscape:cx="182.00955"
     inkscape:zoom="13.478186"
     showgrid="false"
     id="namedview41"
     inkscape:window-height="847"
     inkscape:window-width="1600"
     inkscape:pageshadow="2"
     inkscape:pageopacity="0"
     guidetolerance="10"
     gridtolerance="10"
     objecttolerance="10"
     borderopacity="1"
     bordercolor="#666666"
     pagecolor="#ffffff" />
  <path
     id="path2"
     fill="#02932D"
     d="M72.1793 30.8239C72.463 30.8239 72.693 31.0539 72.693 31.3376V58.5654C72.693 58.8491 72.463 59.0791 72.1793 59.0791C71.8956 59.0791 71.6656 58.8491 71.6656 58.5654V31.3376C71.6656 31.0539 71.8956 30.8239 72.1793 30.8239Z"
     clip-rule="evenodd"
     fill-rule="evenodd" />
  <path
     id="path4"
     fill="#CF2728"
     d="M69.2456 30.589C69.5172 30.6712 69.6708 30.9579 69.5886 31.2295L60.3414 61.7965C60.2593 62.0681 59.9725 62.2216 59.701 62.1395C59.4294 62.0573 59.2758 61.7706 59.358 61.499L68.6052 30.932C68.6873 30.6604 68.9741 30.5069 69.2456 30.589Z"
     clip-rule="evenodd"
     fill-rule="evenodd" />
  <path
     id="path6"
     fill="#4B4A79"
     d="M67.3313 29.8856C67.5658 30.0454 67.6263 30.365 67.4665 30.5995L43.8349 65.2763C43.6751 65.5108 43.3555 65.5713 43.1211 65.4115C42.8866 65.2518 42.8261 64.9322 42.9858 64.6977L66.6175 30.0208C66.7773 29.7864 67.0968 29.7258 67.3313 29.8856Z"
     clip-rule="evenodd"
     fill-rule="evenodd" />
  <path
     id="path8"
     fill="#129B12"
     d="M65.1332 28.7072C65.3092 28.9297 65.2714 29.2528 65.0488 29.4288L31.9132 55.6291C31.6906 55.8051 31.3675 55.7673 31.1916 55.5448C31.0156 55.3222 31.0533 54.9991 31.2759 54.8231L64.4116 28.6228C64.6341 28.4469 64.9572 28.4846 65.1332 28.7072Z"
     clip-rule="evenodd"
     fill-rule="evenodd" />
  <path
     id="path10"
     fill="#0260CB"
     d="M62.8823 26.4933C63.0042 26.7495 62.8953 27.056 62.6391 27.1779L19.9994 47.4703C19.7433 47.5922 19.4367 47.4834 19.3148 47.2272C19.1929 46.971 19.3017 46.6645 19.5579 46.5425L62.1976 26.2502C62.4538 26.1282 62.7603 26.2371 62.8823 26.4933Z"
     clip-rule="evenodd"
     fill-rule="evenodd" />
  <path
     id="path12"
     fill="#FF4E4E"
     d="M62.1461 24.534C62.2152 24.8092 62.0481 25.0883 61.7729 25.1574L2.43693 40.0556C2.16175 40.1247 1.88266 39.9576 1.81356 39.6824C1.74447 39.4072 1.91154 39.1282 2.18672 39.0591L61.5227 24.1609C61.7979 24.0918 62.077 24.2588 62.1461 24.534Z"
     clip-rule="evenodd"
     fill-rule="evenodd" />
  <path
     id="path14"
     fill="#0A7625"
     d="M61.1312 21.5222C61.1613 21.8043 60.957 22.0574 60.6749 22.0876L0.568349 28.5092C0.286229 28.5393 0.0330908 28.3351 0.00294971 28.0529C-0.0271914 27.7708 0.177078 27.5177 0.459199 27.4875L60.5658 21.0659C60.8479 21.0358 61.101 21.24 61.1312 21.5222Z"
     clip-rule="evenodd"
     fill-rule="evenodd" />
  <path
     id="path16"
     fill="#316364"
     d="M8.99036 18.2375C8.99036 17.9538 9.22036 17.7238 9.50409 17.7238H60.8772C61.1609 17.7238 61.3909 17.9538 61.3909 18.2375C61.3909 18.5212 61.1609 18.7512 60.8772 18.7512H9.50409C9.22036 18.7512 8.99036 18.5212 8.99036 18.2375Z"
     clip-rule="evenodd"
     fill-rule="evenodd" />
  <path
     id="path18"
     fill="#FFCC0A"
     d="M44.9986 8.7755C45.1172 8.51777 45.4224 8.40501 45.6801 8.52365L61.8626 15.9728C62.1204 16.0914 62.2331 16.3965 62.1145 16.6542C61.9958 16.912 61.6907 17.0247 61.433 16.9061L45.2505 9.45697C44.9927 9.33834 44.88 9.03323 44.9986 8.7755Z"
     clip-rule="evenodd"
     fill-rule="evenodd" />
  <path
     id="path20"
     fill="#CA2D02"
     d="M48.6947 0.153945C48.8934 -0.0485816 49.2186 -0.0516793 49.4212 0.147026L63.035 13.504C63.2376 13.7027 63.2407 14.028 63.042 14.2305C62.8432 14.4331 62.518 14.4362 62.3155 14.2375L48.7016 0.880437C48.4991 0.681732 48.496 0.356471 48.6947 0.153945Z"
     clip-rule="evenodd"
     fill-rule="evenodd" />
  <path
     id="path22"
     fill="#2A4EAB"
     d="M74.1076 32.0625C74.1076 31.3788 74.6159 30.8092 75.2788 30.6415C79.9574 29.4582 83.4197 25.2205 83.4197 20.1741C83.4197 14.2114 78.586 9.37761 72.6232 9.37761C69.9442 9.37761 67.4931 10.3534 65.6059 11.9689C65.0251 12.4661 64.1473 12.5001 63.6017 11.9643C63.085 11.4568 63.0591 10.6252 63.5975 10.1407C65.9885 7.98837 69.1529 6.6785 72.6232 6.6785C80.0766 6.6785 86.1188 12.7207 86.1188 20.1741C86.1188 23.4147 84.9766 26.3886 83.0728 28.7151L92.6991 38.3413C93.1003 38.7426 93.1003 39.3931 92.6991 39.7944L92.2435 40.2499C91.8423 40.6512 91.1917 40.6512 90.7905 40.2499L81.1642 30.6236C79.5752 31.9239 77.6842 32.869 75.6124 33.3375C74.8178 33.5172 74.1076 32.8773 74.1076 32.0625Z"
     clip-rule="evenodd"
     fill-rule="evenodd" />
  <path
     id="path24"
     fill="black"
     d="M119.25 13.1V15.3H111.1V20.975H118.45V23.125H111.1V28.8H119.25V31H108.8V13.1H119.25ZM140.8 13.1H143.2L138.425 31H136.075L132.225 19.2H132.125L128.275 31H125.925L120.95 13.1H123.35L127.125 27.175H127.225L131.1 15.5H133.25L137.125 27.175H137.225L140.8 13.1ZM150.458 31H148.158L143.208 18.75H145.708L149.308 28.25H149.358L153.008 18.75H155.458L150.458 31ZM163.46 15.3V31H161.16V15.3H156.16V13.1H168.46V15.3H163.46Z" />
  <path
     id="path26"
     fill="#444444"
     d="M109.46 52H108.08V41.26H109.76L114.98 49.615H115.04L114.98 47.545V41.26H116.36V52H114.92L109.46 43.24H109.4L109.46 45.31V52ZM122.424 42.955L120.669 47.8H124.239L122.484 42.955H122.424ZM119.154 52H117.624L121.674 41.26H123.234L127.284 52H125.754L124.719 49.09H120.204L119.154 52ZM131.809 52H130.369L126.589 41.26H128.119L131.059 49.975H131.119L134.179 41.26H135.709L131.809 52ZM138.347 52H136.967V41.26H138.347V52ZM150.7 47.065C150.7 48.565 150.255 49.76 149.365 50.65C148.365 51.71 147.05 52.24 145.42 52.24C143.86 52.24 142.54 51.7 141.46 50.62C140.38 49.54 139.84 48.21 139.84 46.63C139.84 45.05 140.38 43.72 141.46 42.64C142.54 41.56 143.86 41.02 145.42 41.02C146.21 41.02 146.955 41.16 147.655 41.44C148.355 41.72 148.93 42.115 149.38 42.625L148.39 43.615C148.06 43.215 147.63 42.905 147.1 42.685C146.58 42.455 146.02 42.34 145.42 42.34C144.25 42.34 143.26 42.745 142.45 43.555C141.65 44.375 141.25 45.4 141.25 46.63C141.25 47.86 141.65 48.885 142.45 49.705C143.26 50.515 144.25 50.92 145.42 50.92C146.49 50.92 147.38 50.62 148.09 50.02C148.8 49.42 149.21 48.595 149.32 47.545H145.42V46.255H150.625C150.675 46.535 150.7 46.805 150.7 47.065ZM156.13 42.955L154.375 47.8H157.945L156.19 42.955H156.13ZM152.86 52H151.33L155.38 41.26H156.94L160.99 52H159.46L158.425 49.09H153.91L152.86 52ZM164.928 42.58V52H163.548V42.58H160.548V41.26H167.928V42.58H164.928ZM179.43 46.63C179.43 48.22 178.9 49.55 177.84 50.62C176.77 51.7 175.46 52.24 173.91 52.24C172.35 52.24 171.04 51.7 169.98 50.62C168.92 49.55 168.39 48.22 168.39 46.63C168.39 45.04 168.92 43.71 169.98 42.64C171.04 41.56 172.35 41.02 173.91 41.02C175.47 41.02 176.78 41.565 177.84 42.655C178.9 43.725 179.43 45.05 179.43 46.63ZM169.8 46.63C169.8 47.87 170.19 48.895 170.97 49.705C171.76 50.515 172.74 50.92 173.91 50.92C175.08 50.92 176.055 50.515 176.835 49.705C177.625 48.905 178.02 47.88 178.02 46.63C178.02 45.38 177.625 44.355 176.835 43.555C176.055 42.745 175.08 42.34 173.91 42.34C172.74 42.34 171.76 42.745 170.97 43.555C170.19 44.365 169.8 45.39 169.8 46.63ZM182.439 42.58V46.36H184.659C185.219 46.36 185.694 46.18 186.084 45.82C186.474 45.45 186.669 44.995 186.669 44.455C186.669 43.955 186.484 43.52 186.114 43.15C185.754 42.77 185.299 42.58 184.749 42.58H182.439ZM182.439 52H181.059V41.26H184.719C185.649 41.26 186.439 41.57 187.089 42.19C187.749 42.8 188.079 43.555 188.079 44.455C188.079 45.195 187.834 45.855 187.344 46.435C186.864 47.005 186.254 47.37 185.514 47.53L185.484 47.575L188.499 51.94V52H186.864L183.969 47.65H182.439V52Z" />
  <rect
     style="fill:url(#paint0_linear_14_204)"
     id="rect28"
     fill="url(#paint0_linear_14_204)"
     rx="9.5"
     height="19"
     width="41"
     y="13"
     x="172" />
  <defs
     id="defs37">
    <linearGradient
       gradientUnits="userSpaceOnUse"
       y2="45.694172"
       x2="233.51167"
       y1="14.5"
       x1="172"
       id="paint0_linear_14_204">
      <stop
         style="stop-color:#ff00ff;stop-opacity:1"
         id="stop32"
         stop-color="#AC782A" />
      <stop
         style="stop-color:#0000ff;stop-opacity:1"
         id="stop34"
         stop-color="#FF9900"
         offset="1" />
    </linearGradient>
  </defs>
  <text
     id="text870"
     y="26.016361"
     x="175.396"
     style="font-style:normal;font-weight:normal;font-size:10.6639px;line-height:1.25;font-family:sans-serif;fill:#ffffff;fill-opacity:1;stroke:none;stroke-width:0.266599"
     xml:space="preserve"><tspan
       style="fill:#ffffff;stroke-width:0.266599"
       y="26.016361"
       x="175.396"
       id="tspan868"
       sodipodi:role="line">ALPHA</tspan></text>
</svg>
