<?xml version="1.0" encoding="UTF-8" standalone="no"?>
<svg
   width="24"
   height="24"
   fill="none"
   viewBox="0 0 24 24"
   version="1.1"
   id="svg1"
   sodipodi:docname="access2a.svg"
   inkscape:version="1.3 (0e150ed6c4, 2023-07-21)"
   xmlns:inkscape="http://www.inkscape.org/namespaces/inkscape"
   xmlns:sodipodi="http://sodipodi.sourceforge.net/DTD/sodipodi-0.dtd"
   xmlns="http://www.w3.org/2000/svg"
   xmlns:svg="http://www.w3.org/2000/svg">
  <defs
     id="defs1" />
  <sodipodi:namedview
     id="namedview1"
     pagecolor="#ffffff"
     bordercolor="#000000"
     borderopacity="0.25"
     inkscape:showpageshadow="2"
     inkscape:pageopacity="0.0"
     inkscape:pagecheckerboard="0"
     inkscape:deskcolor="#d1d1d1"
     inkscape:zoom="9.3249707"
     inkscape:cx="21.34055"
     inkscape:cy="16.461178"
     inkscape:window-width="1600"
     inkscape:window-height="829"
     inkscape:window-x="-8"
     inkscape:window-y="-8"
     inkscape:window-maximized="1"
     inkscape:current-layer="svg1" />
  <path
     d="M 6.25,2 C 5.0073593,2 4,3.0073593 4,4.25 v 15.5 C 4,20.992641 5.0073593,22 6.25,22 h 6.56 C 12.38128,21.553711 12.018303,21.04864 11.732,20.5 H 6.25 C 5.8357864,20.5 5.5,20.164214 5.5,19.75 V 4.25 C 5.5,3.8357864 5.8357864,3.5 6.25,3.5 h 11.5 c 0.414214,0 0.75,0.3357864 0.75,0.75 v 5.002938 c 0.523,0.081 1.026,0.5457168 1.5,0.7437168 V 4.25 C 20,3.0073593 18.992641,2 17.75,2 Z M 8.5,13.25 c 1.999999,0 1.999999,-3 0,-3 -1.9999991,0 -1.9999991,3 0,3 z"
     fill="#212121"
     id="path1"
     sodipodi:nodetypes="ssssccssssssccssssss" />
  <path
     d="m 17.916226,10.019535 c 0.587,0.108 1.108,0.4 1.5,0.817 0.483415,0.50967 0.752617,1.185538 0.752,1.888 0.0012,0.702186 -0.267314,1.378018 -0.75,1.888 -0.519357,0.550718 -1.243018,0.862616 -2,0.862 -4.012907,-0.0037 -3.449245,-6.1779767 0.498,-5.455 z m -4.014,6.455 h 7.016 c 0.828427,0 1.5,0.671573 1.5,1.5 v 0.5 c 0,1.971 -1.86,4 -5,4 -1.379,0 -2.51,-0.39 -3.346,-0.995 -0.546397,-0.388019 -0.990163,-0.903172 -1.293,-1.501 -0.234623,-0.466817 -0.358171,-0.981547 -0.361,-1.504 v -0.5 c -3.6e-5,-0.82299 0.663045,-1.492319 1.486,-1.5 z"
     style="fill:#ff6600"
     id="path1-2" />
</svg>
