<?xml version="1.0" encoding="UTF-8" standalone="no"?>
<svg
   width="24"
   height="24"
   fill="none"
   viewBox="0 0 24 24"
   version="1.1"
   id="svg1"
   sodipodi:docname="check.svg"
   inkscape:version="1.3 (0e150ed6c4, 2023-07-21)"
   xmlns:inkscape="http://www.inkscape.org/namespaces/inkscape"
   xmlns:sodipodi="http://sodipodi.sourceforge.net/DTD/sodipodi-0.dtd"
   xmlns="http://www.w3.org/2000/svg"
   xmlns:svg="http://www.w3.org/2000/svg">
  <defs
     id="defs1" />
  <sodipodi:namedview
     id="namedview1"
     pagecolor="#ffffff"
     bordercolor="#000000"
     borderopacity="0.25"
     inkscape:showpageshadow="2"
     inkscape:pageopacity="0.0"
     inkscape:pagecheckerboard="0"
     inkscape:deskcolor="#d1d1d1"
     inkscape:zoom="6.59375"
     inkscape:cx="-4.549763"
     inkscape:cy="-4.9289099"
     inkscape:window-width="1600"
     inkscape:window-height="829"
     inkscape:window-x="-8"
     inkscape:window-y="-8"
     inkscape:window-maximized="1"
     inkscape:current-layer="svg1" />
  <path
     d="m 20.5,16.75 v -4.482 c 0.54864,-0.286303 1.053711,-0.64928 1.5,-1.078 v 5.56 c 1.13e-4,1.723527 -1.345237,3.147422 -3.066,3.245 L 18.75,20 H 5.25 C 3.5264728,20.000113 2.1025782,18.654763 2.005,16.934 L 2,16.75 V 7.25 C 1.9998872,5.5264728 3.3452372,4.1025782 5.066,4.005 L 5.25,4 h 6.248 C 11.297241,4.4811119 11.155541,4.9847854 11.076,5.5 H 5.25 C 4.3393576,5.500034 3.5809329,6.1984458 3.506,7.106 L 3.5,7.25 v 0.429 l 8.5,4.473 1.305,-0.687 c 0.439,0.371 0.927,0.685 1.454,0.93 l -2.41,1.269 c -0.185934,0.09767 -0.404304,0.112909 -0.602,0.042 L 11.651,13.664 3.5,9.374 v 7.376 c 3.4e-5,0.910642 0.6984458,1.669067 1.606,1.744 L 5.25,18.5 h 13.5 c 0.910996,-7.7e-5 1.669559,-0.69905 1.744,-1.607 z"
     fill="#212121"
     id="path1"
     sodipodi:nodetypes="ccccccccccccccccccccccccccccccc" />
  <path
     d="m 23.062819,6.4310464 c 0,3.0375682 -2.462434,5.4999976 -5.5,5.4999976 -3.037566,0 -5.5,-2.4624294 -5.5,-5.4999976 0,-3.0375682 2.462434,-5.49999759 5.5,-5.49999759 3.037566,0 5.5,2.46242939 5.5,5.49999759 z m -6,-1.793 v 4.793 c 0,0.6666656 1,0.6666656 1,0 v -4.793 l 1.646,1.647 c 0.472,0.4719998 1.18,-0.2360001 0.708,-0.708 l -2.5,-2.5 c -0.195364,-0.1958584 -0.512636,-0.1958584 -0.708,0 l -2.5,2.5 c -0.472,0.4719999 0.236,1.1799998 0.708,0.708 z"
     style="fill:#008000"
     id="path1-4"
     sodipodi:nodetypes="ssssscssccsccscc" />
</svg>
