<svg xmlns="http://www.w3.org/2000/svg" height="40" viewBox="0 -960 960 960" width="40"><path d="M456.296-77.694v-65.499q-130.501-12.898-215.353-97.75t-97.75-215.353H77.694v-47.883h65.499q12.898-130.5 97.75-215.115 84.852-84.615 215.353-97.665v-65.347h47.883v65.243q130.5 13.154 215.115 97.769 84.615 84.615 97.665 215.115h65.347v47.883h-65.243q-13.154 130.501-97.769 215.353-84.615 84.852-215.115 97.75v65.499h-47.883Zm24.205-112.562q120.039 0 204.641-85.103 84.602-85.102 84.602-205.142 0-120.039-84.602-204.641-84.602-84.602-204.641-84.602-120.04 0-205.142 84.602-85.103 84.602-85.103 204.641 0 120.04 85.103 205.142 85.102 85.103 205.142 85.103ZM480-347.719q-55.563 0-93.922-38.359-38.359-38.359-38.359-93.922 0-55.563 38.359-93.922 38.359-38.359 93.922-38.359 55.563 0 93.922 38.359 38.359 38.359 38.359 93.922 0 55.563-38.359 93.922-38.359 38.359-93.922 38.359Zm-.082-47.884q35.476 0 59.978-24.419 24.502-24.419 24.502-59.896 0-35.476-24.42-59.978-24.419-24.502-59.896-24.502-35.476 0-59.978 24.42-24.501 24.419-24.501 59.896 0 35.476 24.419 59.978 24.419 24.501 59.896 24.501ZM480-480Z"/></svg>