<svg width="277" height="343" viewBox="0 0 277 343" fill="none" xmlns="http://www.w3.org/2000/svg">
<path fill-rule="evenodd" clip-rule="evenodd" d="M0 138.5C0 62.0086 62.0086 0 138.5 0C214.991 0 277 62.0086 277 138.5C277 202.037 234.216 255.582 175.885 271.895C169.699 273.626 164.218 277.441 161 283V283L146.629 306.247C144.995 308.891 142.108 310.5 139 310.5V310.5V310.5C135.892 310.5 133.005 308.891 131.371 306.247L117 283V283C113.867 277.588 108.512 273.89 102.473 272.268C43.4496 256.411 0 202.529 0 138.5ZM129 332.5C129 326.701 133.701 322 139.5 322C145.299 322 150 326.701 150 332.5C150 338.299 145.299 343 139.5 343C133.701 343 129 338.299 129 332.5Z" fill="url(#paint0_radial_58_10)"/>
<g filter="url(#filter0_d_58_10)">
<path d="M169.75 138.5C161.104 138.5 153.734 135.453 147.641 129.359C141.547 123.266 138.5 115.896 138.5 107.25C138.5 98.6042 141.547 91.2344 147.641 85.1406C153.734 79.0469 161.104 76 169.75 76C178.396 76 185.766 79.0469 191.859 85.1406C197.953 91.2344 201 98.6042 201 107.25C201 115.896 197.953 123.266 191.859 129.359C185.766 135.453 178.396 138.5 169.75 138.5ZM79.75 197.25C78.6042 196.104 77.6927 194.802 77.0156 193.344C76.3385 191.885 76 190.271 76 188.5V101C76 97.5625 77.224 94.6198 79.6719 92.1719C82.1198 89.724 85.0625 88.5 88.5 88.5H130.375C128.917 91.3125 127.823 94.3073 127.094 97.4844C126.365 100.661 126 103.917 126 107.25C126 113.396 127.146 119.099 129.438 124.359C131.729 129.62 134.854 134.229 138.812 138.188L79.75 197.25ZM132.25 201V167.25C132.25 162.875 133.578 158.943 136.234 155.453C138.891 151.964 142.354 149.75 146.625 148.812C150.271 147.979 154.021 147.354 157.875 146.938C161.729 146.521 165.688 146.312 169.75 146.312C173.083 146.312 176.286 146.443 179.359 146.703C182.432 146.964 185.479 147.354 188.5 147.875V188.5C188.5 191.938 187.276 194.88 184.828 197.328C182.38 199.776 179.438 201 176 201H132.25Z" fill="white"/>
</g>
<defs>
<filter id="filter0_d_58_10" x="68" y="68" width="141" height="141" filterUnits="userSpaceOnUse" color-interpolation-filters="sRGB">
<feFlood flood-opacity="0" result="BackgroundImageFix"/>
<feColorMatrix in="SourceAlpha" type="matrix" values="0 0 0 0 0 0 0 0 0 0 0 0 0 0 0 0 0 0 127 0" result="hardAlpha"/>
<feOffset/>
<feGaussianBlur stdDeviation="4"/>
<feComposite in2="hardAlpha" operator="out"/>
<feColorMatrix type="matrix" values="0 0 0 0 0 0 0 0 0 0 0 0 0 0 0 0 0 0 0.25 0"/>
<feBlend mode="normal" in2="BackgroundImageFix" result="effect1_dropShadow_58_10"/>
<feBlend mode="normal" in="SourceGraphic" in2="effect1_dropShadow_58_10" result="shape"/>
</filter>
<radialGradient id="paint0_radial_58_10" cx="0" cy="0" r="1" gradientUnits="userSpaceOnUse" gradientTransform="translate(185 254.626) rotate(-113.344) scale(155.207 129.677)">
<stop stop-color="#296AA7"/>
<stop offset="1" stop-color="#3B7DB9"/>
</radialGradient>
</defs>
</svg>
