<svg width="277" height="343" viewBox="0 0 277 343" fill="none" xmlns="http://www.w3.org/2000/svg">
<path fill-rule="evenodd" clip-rule="evenodd" d="M0 138.5C0 62.0086 62.0086 0 138.5 0C214.991 0 277 62.0086 277 138.5C277 202.037 234.216 255.582 175.885 271.895C169.699 273.626 164.218 277.441 161 283V283L146.629 306.247C144.995 308.891 142.108 310.5 139 310.5V310.5V310.5C135.892 310.5 133.005 308.891 131.371 306.247L117 283V283C113.867 277.588 108.512 273.89 102.473 272.268C43.4496 256.411 0 202.529 0 138.5ZM129 332.5C129 326.701 133.701 322 139.5 322C145.299 322 150 326.701 150 332.5C150 338.299 145.299 343 139.5 343C133.701 343 129 338.299 129 332.5Z" fill="url(#paint0_radial_57_9)"/>
<g filter="url(#filter0_d_57_9)">
<rect x="94" y="94" width="88" height="88" rx="44" fill="white"/>
</g>
<defs>
<filter id="filter0_d_57_9" x="86" y="86" width="104" height="104" filterUnits="userSpaceOnUse" color-interpolation-filters="sRGB">
<feFlood flood-opacity="0" result="BackgroundImageFix"/>
<feColorMatrix in="SourceAlpha" type="matrix" values="0 0 0 0 0 0 0 0 0 0 0 0 0 0 0 0 0 0 127 0" result="hardAlpha"/>
<feOffset/>
<feGaussianBlur stdDeviation="4"/>
<feComposite in2="hardAlpha" operator="out"/>
<feColorMatrix type="matrix" values="0 0 0 0 0 0 0 0 0 0 0 0 0 0 0 0 0 0 0.25 0"/>
<feBlend mode="normal" in2="BackgroundImageFix" result="effect1_dropShadow_57_9"/>
<feBlend mode="normal" in="SourceGraphic" in2="effect1_dropShadow_57_9" result="shape"/>
</filter>
<radialGradient id="paint0_radial_57_9" cx="0" cy="0" r="1" gradientUnits="userSpaceOnUse" gradientTransform="translate(185 254.626) rotate(-113.344) scale(155.207 129.677)">
<stop stop-color="#FF0000"/>
<stop offset="1" stop-color="#FF3838"/>
</radialGradient>
</defs>
</svg>
