<?xml version="1.0" encoding="UTF-8" standalone="no"?>
<svg
   width="24"
   height="24"
   fill="none"
   viewBox="0 0 24 24"
   version="1.1"
   id="svg1"
   sodipodi:docname="ic_fluent_send_24_regular.svg"
   inkscape:version="1.3 (0e150ed6c4, 2023-07-21)"
   xmlns:inkscape="http://www.inkscape.org/namespaces/inkscape"
   xmlns:sodipodi="http://sodipodi.sourceforge.net/DTD/sodipodi-0.dtd"
   xmlns="http://www.w3.org/2000/svg"
   xmlns:svg="http://www.w3.org/2000/svg">
  <defs
     id="defs1" />
  <sodipodi:namedview
     id="namedview1"
     pagecolor="#ffffff"
     bordercolor="#000000"
     borderopacity="0.25"
     inkscape:showpageshadow="2"
     inkscape:pageopacity="0.0"
     inkscape:pagecheckerboard="0"
     inkscape:deskcolor="#d1d1d1"
     inkscape:zoom="26.375"
     inkscape:cx="11.981043"
     inkscape:cy="12"
     inkscape:window-width="1600"
     inkscape:window-height="829"
     inkscape:window-x="-8"
     inkscape:window-y="-8"
     inkscape:window-maximized="1"
     inkscape:current-layer="svg1" />
  <path
     d="M5.694 12 2.299 3.272c-.236-.607.356-1.188.942-.982l.093.04 18 9a.75.75 0 0 1 .097 1.283l-.097.058-18 9c-.583.291-1.217-.244-1.065-.847l.03-.096L5.694 12 2.299 3.272 5.694 12ZM4.402 4.54l2.61 6.71h6.627a.75.75 0 0 1 .743.648l.007.102a.75.75 0 0 1-.649.743l-.101.007H7.01l-2.609 6.71L19.322 12 4.401 4.54Z"
     fill="#212121"
     id="path1"
     style="fill:#f9f9f9" />
</svg>
