<?xml version="1.0" encoding="UTF-8" standalone="no"?>
<svg
   width="24"
   height="24"
   fill="none"
   viewBox="0 0 24 24"
   version="1.1"
   id="svg1"
   sodipodi:docname="ic_fluent_window_dev_tools_24_regular.svg"
   inkscape:version="1.3 (0e150ed6c4, 2023-07-21)"
   xmlns:inkscape="http://www.inkscape.org/namespaces/inkscape"
   xmlns:sodipodi="http://sodipodi.sourceforge.net/DTD/sodipodi-0.dtd"
   xmlns="http://www.w3.org/2000/svg"
   xmlns:svg="http://www.w3.org/2000/svg">
  <defs
     id="defs1" />
  <sodipodi:namedview
     id="namedview1"
     pagecolor="#ffffff"
     bordercolor="#000000"
     borderopacity="0.25"
     inkscape:showpageshadow="2"
     inkscape:pageopacity="0.0"
     inkscape:pagecheckerboard="0"
     inkscape:deskcolor="#d1d1d1"
     inkscape:zoom="16"
     inkscape:cx="5.0625"
     inkscape:cy="11.34375"
     inkscape:window-width="1600"
     inkscape:window-height="829"
     inkscape:window-x="-8"
     inkscape:window-y="-8"
     inkscape:window-maximized="1"
     inkscape:current-layer="svg1" />
  <path
     d="m 2.4157246,5.8571423 c -0.9045114,1.414894 -0.900704,3.227354 0.00974,4.6384347 0.9121493,1.418388 2.5696956,2.172044 4.2381682,1.927019 l 6.0204872,8.245462 c 1.313178,1.90622 4.202203,0.04614 3.010438,-1.938252 L 9.6659691,10.473269 C 11.732523,7.2194103 8.8002377,3.1007158 5.0492567,3.9886276 L 7.2420509,7.3951413 C 8.3157913,9.0097533 5.8577525,10.591722 4.832934,8.9456243 L 2.6401397,5.5391106 C 2.5605368,5.6416533 2.4856564,5.747775 2.4157246,5.8571423 Z"
     fill="#212121"
     id="path1"
     sodipodi:nodetypes="ccccccccccc"
     style="stroke-width:1.22761" />
  <path
     id="path1-8"
     style="fill:#212121;stroke-width:0.768941"
     d="m 14.800781,3.1347656 c -0.546396,-0.00319 -1.089743,0.2511292 -1.43164,0.7421875 L 11.214844,6.96875 c -0.624539,0.8953961 -0.273869,2.1372746 0.726562,2.5742188 l 1.701172,0.7421872 -0.01172,0.01172 -1.800781,2.253906 2.367188,3.205078 2.583984,-3.353515 0,0.0078 1.177734,1.28125 c 0.749062,0.815383 2.06038,0.726809 2.69336,-0.18164 l 2.136718,-3.064454 C 23.397221,9.5730927 23.083471,8.3648212 22.126953,7.9003906 L 18.800781,6.2832031 C 18.746311,6.2567752 18.695978,6.221662 18.652344,6.1796875 L 15.988281,3.6191406 c -0.335499,-0.3225332 -0.762525,-0.4818902 -1.1875,-0.484375 z m -0.06836,1.1582032 c 0.16075,-0.01572 0.327446,0.035581 0.455078,0.1582031 L 15.621094,4.8671875 12.935547,8.71875 12.402344,8.4863281 C 12.069063,8.3406383 11.952182,7.9253618 12.160156,7.6269531 l 2.154297,-3.0898437 h 0.002 c 0.10146,-0.1450256 0.255266,-0.2284205 0.416016,-0.2441406 z m 1.730469,1.3847656 1.390625,1.3359375 c 0.13088,0.1250558 0.28076,0.2290308 0.443359,0.3085937 l 1.675781,0.8125 -2.396484,3.4355464 -1.021484,-1.111328 C 16.391761,10.28173 16.193313,10.139275 15.972656,10.042969 L 14.013672,9.1894531 Z m 4.558593,2.96875 0.601563,0.2910156 c 0.319538,0.1545218 0.423874,0.5585707 0.220703,0.8496094 l -2.136719,3.0644526 c -0.210845,0.302672 -0.648626,0.331952 -0.898437,0.06055 L 18.375,12.441406 Z m -5.060546,2.8828126 c 0.0068,0.0028 0.01373,0.0044 0.01953,0.0098 v 0.002 c -0.006,-0.0043 -0.01332,-0.0076 -0.01953,-0.01172 z m -7.0742192,4.927734 -1.5351563,1.861328 c -1.5737348,2.118887 1.6898293,4.416531 3.1542965,2.220703 l 0.765625,-0.902343 z"
     sodipodi:nodetypes="sccccccccccccccccsscccccccsccccccccccccccccccccccccc" />
</svg>
