<svg xmlns="http://www.w3.org/2000/svg" height="40" viewBox="0 -960 960 960" width="40"><path d="M231.655-93.795V-380.95h-53.706v-222.623q0-26.03 19.194-45.28 19.193-19.25 45.287-19.25h103.614q26.34 0 45.59 19.187 19.25 19.188 19.25 45.594v222.372h-53.706v287.154H231.655Zm63.063-621.371q-28.769 0-49.173-20.339-20.404-20.34-20.404-49.109 0-28.769 20.34-49.173 20.339-20.404 49.108-20.404 28.77 0 49.173 20.339 20.404 20.34 20.404 49.109 0 28.769-20.339 49.173-20.339 20.404-49.109 20.404Zm329.924 621.37v-227.627h-98.269l81.012-303.115q6.462-20.542 23.614-32.053 17.152-11.511 39.401-11.511 22.25 0 39.523 11.511 17.274 11.511 23.128 32.053l81.268 303.115H716.07v227.628h-91.428Zm45.64-621.37q-28.769 0-49.173-20.339-20.403-20.34-20.403-49.109 0-28.769 20.339-49.173 20.339-20.404 49.109-20.404 28.769 0 49.173 20.339 20.403 20.34 20.403 49.109 0 28.769-20.339 49.173-20.339 20.404-49.109 20.404Z"/></svg>