<svg xmlns="http://www.w3.org/2000/svg" height="40" viewBox="0 -960 960 960" width="40"><path d="M415.192-93.795v-224.027H297.436L405-628.462q8.231-23.487 29.201-36.743 20.971-13.256 45.799-13.256t45.799 13.256q20.97 13.256 29.236 36.722l107.528 310.661H544.808v224.027H415.192Zm64.837-635.872q-28.952 0-49.247-20.386-20.294-20.385-20.294-49.097 0-28.952 20.265-49.247 20.266-20.295 49.218-20.295 28.952 0 49.247 20.266 20.294 20.265 20.294 49.089 0 28.824-20.265 49.247-20.266 20.423-49.218 20.423Z"/></svg>