<svg xmlns="http://www.w3.org/2000/svg" height="40" viewBox="0 -960 960 960" width="40"><path d="M414.359-93.795V-361.54h-73.012v-244.525q0-24.63 17.78-42.411 17.781-17.781 42.412-17.781h156.922q24.631 0 42.412 17.781 17.78 17.781 17.78 42.411v244.525h-73.012v267.744H414.359Zm65.67-635.872q-28.952 0-49.247-20.394-20.294-20.393-20.294-49.089 0-28.952 20.265-49.247 20.266-20.295 49.218-20.295 28.952 0 49.247 20.266 20.294 20.265 20.294 49.217 0 28.696-20.265 49.119-20.266 20.423-49.218 20.423Z"/></svg>