<svg width="40" height="40" viewBox="0 0 40 40" fill="none" xmlns="http://www.w3.org/2000/svg">
<path d="M6.23775 36.0919V24.1271H4V14.8511C4 14.1281 4.26658 13.4992 4.79975 12.9644C5.33289 12.4297 5.96187 12.1624 6.68671 12.1624H11.004C11.7356 12.1624 12.3688 12.4288 12.9035 12.9618C13.4383 13.4948 13.7056 14.1281 13.7056 14.8616V24.1271H11.4679V36.0918L6.23775 36.0919ZM8.86537 10.2014C8.06624 10.2014 7.38328 9.91891 6.8165 9.35394C6.24972 8.78894 5.96633 8.10687 5.96633 7.30773C5.96633 6.50859 6.24883 5.82564 6.81383 5.25886C7.37881 4.69208 8.06086 4.40869 8.86 4.40869C9.65917 4.40869 10.3421 4.69118 10.9089 5.25615C11.4757 5.82115 11.759 6.50322 11.759 7.30236C11.759 8.1015 11.4766 8.78445 10.9116 9.35123C10.3466 9.91801 9.66454 10.2014 8.86537 10.2014ZM18.6122 36.0918V26.6074H14.5177L17.8932 13.9776C18.0727 13.407 18.4006 12.9618 18.8771 12.642C19.3535 12.3223 19.9008 12.1624 20.5188 12.1624C21.1368 12.1624 21.6858 12.3223 22.1656 12.642C22.6454 12.9618 22.9666 13.407 23.1293 13.9776L26.5154 26.6074H22.4217V36.0919L18.6122 36.0918ZM20.5139 10.2014C19.7147 10.2014 19.0318 9.91891 18.465 9.35394C17.8983 8.78894 17.6149 8.10687 17.6149 7.30773C17.6149 6.50859 17.8974 5.82564 18.4623 5.25886C19.0273 4.69208 19.7094 4.40869 20.5085 4.40869C21.3077 4.40869 21.9906 4.69118 22.5574 5.25615C23.1242 5.82115 23.4075 6.50322 23.4075 7.30236C23.4075 8.1015 23.1251 8.78445 22.5601 9.35123C21.9951 9.91801 21.313 10.2014 20.5139 10.2014Z" fill="black"/>
<path d="M28.7964 16L25 12.2036V6.79643L28.7964 3H34.2036L38 6.79643V12.2036L34.2036 16H28.7964ZM29.2249 12.4277L31.5 10.1575L33.7752 12.4277L34.4327 11.7751L32.1575 9.49999L34.4327 7.22484L33.7752 6.56735L31.5 8.84248L29.2249 6.56735L28.5723 7.22484L30.8425 9.49999L28.5723 11.7751L29.2249 12.4277ZM29.1866 15.0729H33.8236L37.0729 11.8134V7.17644L33.8236 3.92705H29.1866L25.9271 7.17644V11.8134L29.1866 15.0729Z" fill="black"/>
</svg>
